<svg width="82" height="42" viewBox="0 0 82 42" fill="none" xmlns="http://www.w3.org/2000/svg">
<path d="M1.0248 28.9336C1.0696 28.4072 1.2376 27.892 1.5288 27.388C1.8312 26.8728 2.1616 26.4696 2.52 26.1784C3.4944 26.8168 4.5752 27.3544 5.7624 27.7912C6.9496 28.228 8.12 28.4464 9.2736 28.4464C10.6288 28.4464 11.6816 28.1552 12.432 27.5728C13.1824 26.9792 13.5576 26.2176 13.5576 25.288C13.5576 24.504 13.2944 23.8096 12.768 23.2048C12.2416 22.5888 11.4856 22.0736 10.5 21.6592L6.4512 19.9624C5.0288 19.3688 3.8976 18.6072 3.0576 17.6776C2.2288 16.7368 1.8144 15.5496 1.8144 14.116C1.8144 12.8952 2.1336 11.7976 2.772 10.8232C3.4216 9.8376 4.3176 9.0592 5.46 8.488C6.6024 7.9056 7.924 7.6144 9.4248 7.6144C10.8248 7.6144 12.1408 7.7936 13.3728 8.152C14.6048 8.5104 15.6576 8.908 16.5312 9.3448C16.52 9.86 16.3912 10.3752 16.1448 10.8904C15.9096 11.3944 15.6072 11.8144 15.2376 12.1504C14.3528 11.7136 13.3896 11.344 12.348 11.0416C11.3064 10.728 10.3544 10.5712 9.492 10.5712C8.2376 10.5712 7.252 10.8736 6.5352 11.4784C5.8296 12.0832 5.4768 12.828 5.4768 13.7128C5.4768 14.452 5.7344 15.0568 6.2496 15.5272C6.7648 15.9976 7.4368 16.4064 8.2656 16.7536L12.2808 18.4168C13.7144 19.0104 14.9072 19.828 15.8592 20.8696C16.8224 21.9112 17.304 23.188 17.304 24.7C17.304 25.988 17.0016 27.1416 16.3968 28.1608C15.8032 29.1688 14.896 29.9696 13.6752 30.5632C12.4544 31.1456 10.92 31.4368 9.072 31.4368C7.672 31.4368 6.2608 31.2128 4.8384 30.7648C3.416 30.3168 2.1448 29.7064 1.0248 28.9336ZM38.3935 22.936C38.3935 25.7136 37.6207 27.8248 36.0751 29.2696C34.5295 30.7144 32.4687 31.4368 29.8927 31.4368C27.3279 31.4368 25.2727 30.7144 23.7271 29.2696C22.1927 27.8248 21.4255 25.7136 21.4255 22.936V8.1184L21.6439 7.9H23.0047C23.7327 7.9 24.2479 8.0848 24.5503 8.4544C24.8527 8.824 25.0039 9.4064 25.0039 10.2016V22.936C25.0039 26.6768 26.6391 28.5472 29.9095 28.5472C33.1799 28.5472 34.8151 26.6768 34.8151 22.936V8.0512C35.0839 7.9952 35.3695 7.9616 35.6719 7.9504C35.9855 7.928 36.2823 7.9168 36.5623 7.9168C36.8311 7.9168 37.1335 7.928 37.4695 7.9504C37.8167 7.9616 38.1247 7.9952 38.3935 8.0512V22.936ZM60.6349 30.076C60.3885 30.4456 60.0357 30.7312 59.5765 30.9328C59.1173 31.1232 58.6637 31.2184 58.2157 31.2184C57.5101 31.2184 57.0005 31.0336 56.6869 30.664C56.3845 30.2944 56.1045 29.7512 55.8469 29.0344L54.0325 24.112C53.5621 22.8464 53.0301 21.9616 52.4365 21.4576C51.8429 20.9424 51.0421 20.6848 50.0341 20.6848C49.8101 20.6848 49.5077 20.6904 49.1269 20.7016C48.7461 20.7128 48.2925 20.7296 47.7661 20.752V31C47.4973 31.056 47.2005 31.0896 46.8757 31.1008C46.5509 31.1232 46.2485 31.1344 45.9685 31.1344C45.6997 31.1344 45.3973 31.1232 45.0613 31.1008C44.7365 31.0896 44.4453 31.056 44.1877 31V8.0512C44.4565 7.9952 44.7533 7.9616 45.0781 7.9504C45.4029 7.928 45.6997 7.9168 45.9685 7.9168C46.2485 7.9168 46.5509 7.928 46.8757 7.9504C47.2005 7.9616 47.4973 7.9952 47.7661 8.0512V17.6608C48.4493 17.6384 49.0765 17.6272 49.6477 17.6272C49.9837 17.6272 50.2301 17.5544 50.3869 17.4088C50.5549 17.2632 50.7341 17.0224 50.9245 16.6864L55.2421 9.3952C55.5109 8.9136 55.7853 8.5496 56.0653 8.3032C56.3453 8.0568 56.7877 7.9336 57.3925 7.9336C57.6949 7.9336 58.0197 7.9448 58.3669 7.9672C58.7253 7.9896 59.0781 8.012 59.4253 8.0344L59.6605 8.3368L54.5701 16.972C54.1781 17.6552 53.7357 18.2096 53.2429 18.6352C54.3741 18.8368 55.2253 19.2904 55.7965 19.996C56.3677 20.7016 56.8717 21.6256 57.3085 22.768L59.1397 27.64C59.3973 28.3456 59.6381 28.8664 59.8621 29.2024C60.0861 29.5272 60.3437 29.8184 60.6349 30.076ZM78.6169 27.9928C78.6169 29.0792 78.4489 29.8576 78.1129 30.328C77.7769 30.7984 77.1609 31.0336 76.2649 31.0336H66.2689C65.6417 31.0336 65.1433 30.8376 64.7737 30.4456C64.4153 30.0536 64.2361 29.516 64.2361 28.8328V8.2696L64.4377 8.0512H77.9617C78.0177 8.32 78.0513 8.5776 78.0625 8.824C78.0737 9.0592 78.0793 9.2776 78.0793 9.4792C78.0793 9.6808 78.0569 9.9328 78.0121 10.2352C77.9673 10.5264 77.8945 10.8064 77.7937 11.0752H69.8305C69.5841 11.0752 69.2649 11.0752 68.8729 11.0752C68.4921 11.0752 68.1057 11.0696 67.7137 11.0584C67.7137 11.5064 67.7193 11.876 67.7305 12.1672C67.7417 12.4584 67.7473 12.828 67.7473 13.276V17.9464C68.1393 17.9464 68.5201 17.9464 68.8897 17.9464C69.2705 17.9352 69.5841 17.9296 69.8305 17.9296H76.1473C76.2033 18.1648 76.2481 18.4224 76.2817 18.7024C76.3153 18.9824 76.3321 19.2176 76.3321 19.408C76.3321 19.6096 76.3153 19.8504 76.2817 20.1304C76.2481 20.3992 76.2033 20.6568 76.1473 20.9032H69.8305C69.5841 20.9032 69.2705 20.9032 68.8897 20.9032C68.5201 20.892 68.1393 20.8808 67.7473 20.8696V26.3632C67.7473 26.6656 67.7417 26.9456 67.7305 27.2032C67.7193 27.4608 67.7137 27.7464 67.7137 28.06C68.0385 28.0376 68.3801 28.0208 68.7385 28.0096C69.0969 27.9984 69.4945 27.9928 69.9313 27.9928H78.6169Z" fill="#F6FAFB"/>
<path d="M24 3.19995C26.0085 4.79995 33.5875 4.79995 35.6 3.19995" stroke="#408ED6" stroke-width="2.4" stroke-linecap="round"/>
</svg>
